<svg xmlns="http://www.w3.org/2000/svg" width="1200" height="440" viewBox="0 0 1200 440"><defs><style>.t{font-family:"Microsoft YaHei","Noto Sans SC",sans-serif;fill:#20364b}.h{font-size:26px;font-weight:700}.m{font-size:19px}.n{font-size:28px;font-weight:700;fill:white}.b{rx:18;stroke:#4d7ea8;stroke-width:3}.a{stroke:#4d7ea8;stroke-width:5;marker-end:url(#x)}</style><marker id="x" markerWidth="12" markerHeight="12" refX="10" refY="6" orient="auto"><path d="M0 0 L12 6 L0 12z" fill="#4d7ea8"/></marker></defs><rect width="1200" height="440" fill="#f6f9fc"/><text x="600" y="55" text-anchor="middle" class="t h">从 GitHub Release 下载并部署</text><rect class="b" x="45" y="130" width="225" height="175" fill="#e8f2ff"/><circle cx="85" cy="172" r="25" fill="#4d7ea8"/><text x="85" y="182" text-anchor="middle" class="n">1</text><text x="158" y="180" text-anchor="middle" class="t h">打开 Releases</text><text x="158" y="230" text-anchor="middle" class="t m">选择 v1.0.0.6</text><path class="a" d="M278 217 H340"/><rect class="b" x="350" y="130" width="225" height="175" fill="#eef9ed"/><circle cx="390" cy="172" r="25" fill="#4d7ea8"/><text x="390" y="182" text-anchor="middle" class="n">2</text><text x="463" y="180" text-anchor="middle" class="t h">下载 Assets</text><text x="463" y="225" text-anchor="middle" class="t m">Compose / 离线包</text><path class="a" d="M583 217 H645"/><rect class="b" x="655" y="130" width="225" height="175" fill="#fff6e6"/><circle cx="695" cy="172" r="25" fill="#4d7ea8"/><text x="695" y="182" text-anchor="middle" class="n">3</text><text x="768" y="180" text-anchor="middle" class="t h">校验 SHA-256</text><text x="768" y="225" text-anchor="middle" class="t m">确认文件完整</text><path class="a" d="M888 217 H950"/><rect class="b" x="960" y="130" width="195" height="175" fill="#f3edff"/><circle cx="1000" cy="172" r="25" fill="#4d7ea8"/><text x="1000" y="182" text-anchor="middle" class="n">4</text><text x="1060" y="180" text-anchor="middle" class="t h">启动</text><text x="1060" y="225" text-anchor="middle" class="t m">compose up -d</text><text x="600" y="375" text-anchor="middle" class="t m">联网拉 Docker Hub；无法联网时使用加密离线包</text></svg>